<?xml version="1.0" encoding="UTF-8" standalone="no"?>
<!-- Created with Inkscape (http://www.inkscape.org/) -->

<svg
   xmlns:dc="http://purl.org/dc/elements/1.1/"
   xmlns:cc="http://creativecommons.org/ns#"
   xmlns:rdf="http://www.w3.org/1999/02/22-rdf-syntax-ns#"
   xmlns:svg="http://www.w3.org/2000/svg"
   xmlns="http://www.w3.org/2000/svg"
   xmlns:sodipodi="http://sodipodi.sourceforge.net/DTD/sodipodi-0.dtd"
   xmlns:inkscape="http://www.inkscape.org/namespaces/inkscape"
   width="720"
   height="720"
   viewBox="0 0 720 720.00001"
   id="svg2"
   version="1.1"
   inkscape:version="0.91 r13725"
   sodipodi:docname="anil.svg"
   inkscape:export-filename="/home/anil/Desktop/anil.svg.png"
   inkscape:export-xdpi="157.49986"
   inkscape:export-ydpi="157.49986">
  <defs
     id="defs4" />
  <sodipodi:namedview
     id="base"
     pagecolor="#ffffff"
     bordercolor="#666666"
     borderopacity="1.0"
     inkscape:pageopacity="0.0"
     inkscape:pageshadow="2"
     inkscape:zoom="0.7"
     inkscape:cx="-7.1187229"
     inkscape:cy="387.31684"
     inkscape:document-units="px"
     inkscape:current-layer="layer1"
     showgrid="false"
     inkscape:window-width="1813"
     inkscape:window-height="993"
     inkscape:window-x="0"
     inkscape:window-y="24"
     inkscape:window-maximized="0"
     units="px"
     fit-margin-top="50"
     fit-margin-left="10"
     fit-margin-right="10"
     fit-margin-bottom="50" />
  <metadata
     id="metadata7">
    <rdf:RDF>
      <cc:Work
         rdf:about="">
        <dc:format>image/svg+xml</dc:format>
        <dc:type
           rdf:resource="http://purl.org/dc/dcmitype/StillImage" />
        <dc:title />
      </cc:Work>
    </rdf:RDF>
  </metadata>
  <g
     inkscape:label="Layer 1"
     inkscape:groupmode="layer"
     id="layer1"
     transform="translate(-10.118572,-168.96478)">
    <path
       style="color:#000000;font-style:normal;font-variant:normal;font-weight:normal;font-stretch:normal;font-size:medium;line-height:normal;font-family:sans-serif;text-indent:0;text-align:start;text-decoration:none;text-decoration-line:none;text-decoration-style:solid;text-decoration-color:#000000;letter-spacing:normal;word-spacing:normal;text-transform:none;direction:ltr;block-progression:tb;writing-mode:lr-tb;baseline-shift:baseline;text-anchor:start;white-space:normal;clip-rule:nonzero;display:inline;overflow:visible;visibility:visible;opacity:1;isolation:auto;mix-blend-mode:normal;color-interpolation:sRGB;color-interpolation-filters:linearRGB;solid-color:#000000;solid-opacity:1;fill:none;fill-opacity:1;fill-rule:evenodd;stroke:#000000;stroke-width:25;stroke-linecap:butt;stroke-linejoin:miter;stroke-miterlimit:4;stroke-dasharray:none;stroke-dashoffset:0;stroke-opacity:1;color-rendering:auto;image-rendering:auto;shape-rendering:auto;text-rendering:auto;enable-background:accumulate"
       d="m 533.35742,229.48242 -1,0.0234 0,0.0215 0,15.97266 -11.86133,0.66016 -30,29.99804 -27.3789,1.44141 -0.72266,7.22461 1.00195,-31.5332 -20.73242,19.99218 -18.66797,-0.71875 -7.85742,14.28711 -18.07031,-0.69531 -23.57422,-22.85937 -22.60742,-0.70704 -1.38672,-15.24218 0,-0.0156 -0.002,-0.0156 -0.99805,0.0742 0.002,0.0176 1.39844,23.76953 -11.79492,0.69336 -33.68164,25.25977 -4.92578,-60.52344 -0.99219,-0.041 -2.82031,16.93164 -13.40625,9.17187 -31.63672,23.72852 0,35.77539 -2.23633,-21.11133 -29.91406,-29.91406 -15.70703,0 0,22.14258 -17.85743,0 0,81.67773 -19.29296,14.29102 1.41992,44.00781 -16.3711,-0.71094 -2.22265,26.69336 8.42773,0.67383 -26.96094,0.51953 0,53.69336 5.96875,2.23828 22.18164,17.17383 20.23438,3.48828 -0.53125,53.57227 8.57617,2.14257 0,65.59961 7.87305,5.00977 2.14648,35.77539 7.16993,2.86914 5.00781,33.625 9.21093,2.125 -0.70312,14.78906 13.5625,14.99024 -2.17188,24.62695 28.66016,-0.7168 1.41016,16.92578 16.75781,10.20118 25.69141,0.71484 10.70703,7.85156 23.31445,1.45703 5.71484,-10.00195 12.56836,0.69727 113.77344,-2.14649 25.32813,-22.43359 -0.0234,-0.25196 c 0,0 -0.71329,-7.6689 -0.98047,-15.32812 -0.13359,-3.82961 -0.15508,-7.65891 0.0762,-10.5 0.11563,-1.42054 0.29848,-2.59857 0.54102,-3.37109 0.12127,-0.38626 0.26099,-0.66756 0.37695,-0.81641 0.11596,-0.14885 0.15908,-0.15234 0.20313,-0.15234 l 6.95507,0 -4.29687,-80.22266 12.11914,-7.13086 0.71289,-26.39453 9.3125,-4.29688 -2.14062,-39.94726 14.28515,-4.28516 -2.85547,-57.79687 9.26367,-1.42578 0,-47.85743 9.28711,-1.42773 0,-17.78711 25.45313,0 12.40625,-15.32422 -0.72266,-57.81055 -42.84375,-0.71289 0.71094,-49.80273 -14.30273,-7.86524 -4.25,-97.05468 10.6914,0 0,-0.70117 0.73438,-0.041 -0.73438,-16.90039 0,-0.0234 z m -233.52734,11.23438 4.74414,58.30273 34.89062,-26.16797 12.49219,-0.73437 -0.50195,-8.53907 22.62109,0.70704 23.57031,22.85546 19.07227,0.73243 7.85547,-14.28516 18.47656,0.71094 19.26758,-18.57813 -1.38672,43.73438 -0.002,0.0332 0.99609,0.0664 2.09961,-21.00196 26.90625,-1.41601 30.00195,-30 0.72852,-0.041 4.2793,97.71289 14.26953,7.84766 -0.71875,50.19727 42.87109,0.71484 0.70508,56.47656 -11.87891,14.67383 -24.26562,0 -0.70899,-69.5 0,-0.004 -1,0.004 0,0.006 0,87.42383 -9.28711,1.42773 0,47.85742 -9.30664,1.43164 2.85938,57.91602 -14.28711,4.28711 2.14648,40.05273 -9.25976,4.27344 -0.71485,26.46289 -12.16601,7.15625 4.27344,79.77735 -5.90039,0 c -0.40239,0 -0.75764,0.23604 -0.99219,0.5371 -0.23455,0.30107 -0.39861,0.67923 -0.54102,1.13282 -0.28481,0.90717 -0.46523,2.12897 -0.58398,3.58789 -0.2375,2.91784 -0.21435,6.76823 -0.0801,10.61719 0.26403,7.56894 0.9455,14.87577 0.96875,15.12695 l -24.67969,21.85937 -113.36914,2.13868 -13.14648,-0.73047 -5.71289,9.99804 -22.40039,-1.40039 -10.72266,-7.86328 -25.73828,-0.71484 -16.09766,-9.79883 -1.44531,-17.35937 -28.48437,0.71289 2.11328,-23.94532 -13.58008,-15.00976 0.72461,-15.21094 -9.35938,-2.16016 -4.99219,-33.51757 -7.11523,-2.84766 -2.14062,-35.65234 -7.83985,-4.98829 0,-65.83007 -8.56836,-2.14258 0.52149,-52.6211 0.18945,0.0332 0,-19.16016 0,-0.006 -1,-0.004 0,0.004 -0.008,0.82422 -8.31446,-1.55859 -2.10546,-42.63868 0,-14.99414 -1.06836,0.0215 -17.46485,-1.39844 2.0625,-24.73437 16.48633,0.71679 -1.4375,-44.56445 19.27734,-14.2793 0,-0.25195 0,-80.92773 17.85743,0 0,-22.14258 14.29296,0 29.3711,29.37109 3.19726,30.18164 0.9961,-0.0527 0,-44.75 31.2207,-23.41602 13.73828,-9.39844 2.22852,-13.36718 z m -132.44922,220.02539 0.69141,13.98242 0,43.05273 2.14648,0.40235 0.0156,0.32812 9.24804,1.42383 -0.16015,16.0918 -19.82813,-3.41797 -22.10547,-17.11328 -5.46094,-2.04883 0,-52.01953 35.45313,-0.68164 z m 1.69141,34.23242 1.0957,22.17773 -1.0957,-0.20507 0,-21.97266 z"
       id="path3417"
       inkscape:connector-curvature="0" />
    <path
       style="fill:none;fill-rule:evenodd;stroke:#000000;stroke-width:25;stroke-linecap:butt;stroke-linejoin:miter;stroke-miterlimit:4;stroke-dasharray:none;stroke-opacity:1"
       d="m 50,470.93363 -0.714286,-10.71428 -18.571428,-0.71429 -1.428572,-32.14286 7.142857,-7.14285 87.142859,-3.57143 8.57143,9.28571 22.14285,0 30.71429,17.85715 0.71429,6.42857 36.42857,1.42857 0,-15 7.14285,-8.57143 65,-0.71429 9.28572,10 -0.71429,57.14286 -63.57143,2.14286 -1.42857,-9.28572 -15.71428,-1.42857 -0.71429,-34.28571"
       id="path4223"
       inkscape:connector-curvature="0" />
    <path
       style="fill:none;fill-rule:evenodd;stroke:#000000;stroke-width:25;stroke-linecap:butt;stroke-linejoin:miter;stroke-miterlimit:4;stroke-dasharray:none;stroke-opacity:1"
       d="m 661.42857,417.3622 40,0.71429 7.85715,-10 L 710,378.79078 672.14286,349.50506 595,350.93363 l -1.42857,7.14286 -14.28572,1.42857 -0.71428,8.57143 -35.71429,-0.71429 0.71429,25.71429 -16.42857,1.42857 -24.28572,27.14286 -1.42857,18.57143 -27.14286,22.85714 -0.71428,11.42857 -37.85714,0.71429 -16.42858,-8.57143 L 415,423.07649 l 11.42857,-15 30,-1.42857 13.57143,10 34.28571,-0.71429"
       id="path4225"
       inkscape:connector-curvature="0" />
    <path
       style="fill:none;fill-rule:evenodd;stroke:#000000;stroke-width:25;stroke-linecap:butt;stroke-linejoin:miter;stroke-miterlimit:4;stroke-dasharray:none;stroke-opacity:1"
       d="m 412.14286,426.64792 -28.57143,0 -7.85714,-7.85714 -47.14286,-0.71429 -16.42857,12.85714 0.71428,20"
       id="path4227"
       inkscape:connector-curvature="0" />
    <rect
       style="opacity:1;fill:#000000;fill-opacity:1;stroke:#000000;stroke-width:20;stroke-miterlimit:4;stroke-dasharray:none;stroke-opacity:1"
       id="rect4231"
       width="2.1428571"
       height="2.1428571"
       x="260"
       y="458.79077" />
    <rect
       style="opacity:1;fill:#000000;fill-opacity:1;stroke:#000000;stroke-width:15.27593899;stroke-miterlimit:4;stroke-dasharray:none;stroke-opacity:1"
       id="rect4233"
       width="4.8669176"
       height="4.1526322"
       x="445.78082"
       y="438.14304" />
    <rect
       style="opacity:1;fill:#000000;fill-opacity:1;stroke:#000000;stroke-width:18;stroke-miterlimit:4;stroke-dasharray:none;stroke-opacity:1"
       id="rect4235"
       width="10"
       height="2.1428571"
       x="316.42859"
       y="525.93365" />
    <rect
       style="opacity:1;fill:#000000;fill-opacity:1;stroke:#000000;stroke-width:18;stroke-miterlimit:4;stroke-dasharray:none;stroke-opacity:1"
       id="rect4237"
       width="8.5714283"
       height="1.4285715"
       x="365.71429"
       y="528.07648" />
    <path
       style="fill:none;fill-rule:evenodd;stroke:#000000;stroke-width:25;stroke-linecap:butt;stroke-linejoin:miter;stroke-miterlimit:4;stroke-dasharray:none;stroke-opacity:1"
       d="m 295.71429,658.07649 0.71428,24.28571 5.71429,5.71429 5,0 0.71428,7.85714 8.57143,4.28572 10,7.14285 7.14286,5.71429 0,10.71429 6.42857,2.14285 2.14286,5.71429 7.14285,7.14286 60,0.71428 11.42858,-8.57143 0.71428,-55 12.85714,-10.71428 2.14286,-14.28572"
       id="path4239"
       inkscape:connector-curvature="0" />
    <path
       style="fill:none;fill-rule:evenodd;stroke:#000000;stroke-width:12;stroke-linecap:butt;stroke-linejoin:miter;stroke-miterlimit:4;stroke-dasharray:none;stroke-opacity:1"
       d="m 265.28571,637.50506 -1.42857,147.14286 9.28572,6.42857"
       id="path4243"
       inkscape:connector-curvature="0" />
    <path
       style="fill:none;fill-rule:evenodd;stroke:#000000;stroke-width:12;stroke-linecap:butt;stroke-linejoin:miter;stroke-miterlimit:4;stroke-dasharray:none;stroke-opacity:1"
       d="m 291.44441,816.4388 4.47188,-8.37554 1.27768,-127.4943"
       id="path4245"
       inkscape:connector-curvature="0" />
    <path
       style="fill:none;fill-rule:evenodd;stroke:#000000;stroke-width:12;stroke-linecap:butt;stroke-linejoin:miter;stroke-miterlimit:4;stroke-dasharray:none;stroke-opacity:1"
       d="m 350.71429,811.3622 11.42857,-10.71428 -1.42857,-145"
       id="path4249"
       inkscape:connector-curvature="0" />
    <path
       style="fill:none;fill-rule:evenodd;stroke:#000000;stroke-width:12;stroke-linecap:butt;stroke-linejoin:miter;stroke-miterlimit:4;stroke-dasharray:none;stroke-opacity:1"
       d="m 387.85714,649.50506 0,167.14286"
       id="path4253"
       inkscape:connector-curvature="0" />
    <path
       style="fill:none;fill-rule:evenodd;stroke:#000000;stroke-width:12;stroke-linecap:butt;stroke-linejoin:miter;stroke-miterlimit:4;stroke-dasharray:none;stroke-opacity:1"
       d="m 407.85714,662.07649 1.42857,146.42857"
       id="path4255"
       inkscape:connector-curvature="0" />
    <path
       style="fill:none;fill-rule:evenodd;stroke:#000000;stroke-width:12;stroke-linecap:butt;stroke-linejoin:miter;stroke-miterlimit:4;stroke-dasharray:none;stroke-opacity:1"
       d="M 447.14286,810.21935 436.42857,797.3622 432.85714,680.21935"
       id="path4257"
       inkscape:connector-curvature="0" />
    <path
       style="fill:none;fill-rule:evenodd;stroke:#000000;stroke-width:12;stroke-linecap:butt;stroke-linejoin:miter;stroke-miterlimit:4;stroke-dasharray:none;stroke-opacity:1"
       d="M 466.41305,812.4065 462.87266,648.03219"
       id="path4259"
       inkscape:connector-curvature="0" />
    <path
       style="fill:none;fill-rule:evenodd;stroke:#000000;stroke-width:12;stroke-linecap:butt;stroke-linejoin:miter;stroke-opacity:1;stroke-miterlimit:4;stroke-dasharray:none"
       d="m 231.54714,657.53621 0,120"
       id="path4152"
       inkscape:connector-curvature="0" />
    <path
       style="fill:none;fill-rule:evenodd;stroke:#000000;stroke-width:12;stroke-linecap:butt;stroke-linejoin:miter;stroke-opacity:1;stroke-miterlimit:4;stroke-dasharray:none"
       d="m 331.54714,826.10764 2.85714,-152.85715"
       id="path4154"
       inkscape:connector-curvature="0" />
  </g>
</svg>
